<svg width="32" height="32" viewBox="0 0 32 32" fill="none" xmlns="http://www.w3.org/2000/svg">
<path d="M27.0612 12.0664L17.0612 22.0664C16.9218 22.2062 16.7563 22.3171 16.5739 22.3929C16.3916 22.4686 16.1961 22.5075 15.9987 22.5075C15.8013 22.5075 15.6058 22.4686 15.4235 22.3929C15.2411 22.3171 15.0756 22.2062 14.9362 22.0664L4.9362 12.0664C4.6544 11.7846 4.49609 11.4024 4.49609 11.0039C4.49609 10.6053 4.6544 10.2231 4.9362 9.94135C5.21799 9.65956 5.60018 9.50125 5.9987 9.50125C6.39721 9.50125 6.7794 9.65956 7.0612 9.94135L15.9999 18.8801L24.9387 9.9401C25.2205 9.65831 25.6027 9.5 26.0012 9.5C26.3997 9.5 26.7819 9.65831 27.0637 9.9401C27.3455 10.2219 27.5038 10.6041 27.5038 11.0026C27.5038 11.4011 27.3455 11.7833 27.0637 12.0651L27.0612 12.0664Z" fill="#020202"/>
</svg>
